#Comment line ignore any data following # character 
#Hierarchical Translation and Rotation (.htr) file 
[Header]	
#Header keywords are followed by a single value 
FileType HTR		#Single word string
DataType HTRS		#Translation followed by rotation and scale data
FileVersion 1		#integer
NumSegments 64		#integer
NumFrames 3		#integer
DataFrameRate 30		#integer, data frame rate in this file
EulerRotationOrder ZYX
CalibrationUnits mm
RotationUnits Degrees
GlobalAxisofGravity Y
BoneLengthAxis Y
ScaleFactor 1.00
[SegmentNames&Hierarchy]
#CHILD	PARENT
Pinger_Root GLOBAL
Pelvis Pinger_Root
L_Hip Pelvis
R_Hip Pelvis
Rear_Leg01 Pelvis
Spine1 Pelvis
L_Leg01 L_Hip
L_Leg02 L_Leg01
L_Leg03 L_Leg02
L_Foot L_Leg03
L_Toe1_01 L_Foot
L_Toe2_01 L_Foot
L_Toe3_01 L_Foot
planeAlignerLeft L_Foot
L_Toe1_02 L_Toe1_01
L_Toe1_03 L_Toe1_02
L_Toe2_02 L_Toe2_01
L_Toe2_03 L_Toe2_02
L_Toe3_02 L_Toe3_01
L_Toe3_03 L_Toe3_02
planeLockWeightLeft planeAlignerLeft
R_Leg01 R_Hip
R_Leg02 R_Leg01
R_Leg03 R_Leg02
R_Foot R_Leg03
planeAlignerRight R_Foot
R_Toe1_01 R_Foot
R_Toe2_01 R_Foot
R_Toe3_01 R_Foot
planeLockWeightRight planeAlignerRight
R_Toe1_02 R_Toe1_01
R_Toe1_03 R_Toe1_02
R_Toe2_02 R_Toe2_01
R_Toe2_03 R_Toe2_02
R_Toe3_02 R_Toe3_01
R_Toe3_03 R_Toe3_02
Rear_Leg02 Rear_Leg01
Rear_Leg03 Rear_Leg02
Rear_Leg04 Rear_Leg03
Rear_Foot Rear_Leg04
planeAlignerCenter Rear_Foot
Rear_Toe1_01 Rear_Foot
Rear_Toe2_01 Rear_Foot
Rear_Toe3_01 Rear_Foot
planeLockWeightCenter planeAlignerCenter
Rear_Toe1_02 Rear_Toe1_01
Rear_Toe1_03 Rear_Toe1_02
Rear_Toe2_02 Rear_Toe2_01
Rear_Toe2_03 Rear_Toe2_02
Rear_Toe3_02 Rear_Toe3_01
Rear_Toe3_03 Rear_Toe3_02
Back_Bone Spine1
Head Spine1
Motor_Bone Back_Bone
Ping_Mechanism Back_Bone
BN_LookIK Head
bottomMouth Head
L_Mouth01 Head
L_mouthFront Head
mouthGun Head
R_Mouth01 Head
R_mouthFront Head
TopMouth Head
weapon_bone Head
[BasePosition]
#SegmentName Tx, Ty, Tz, Rx, Ry, Rz, BoneLength
Pinger_Root 0.000000 0.000000 0.000000 -90.000000 0.000000 0.000000 10.000000 
Pelvis 0.000000 0.000000 0.000000 0.000000 0.000000 0.000000 10.000000 
L_Hip 0.000000 0.000000 0.000000 0.000000 0.000000 0.000000 10.000000 
R_Hip 0.000000 0.000000 0.000000 0.000000 0.000000 0.000000 10.000000 
Rear_Leg01 0.000000 0.000000 0.000000 0.000000 0.000000 0.000000 10.000000 
Spine1 0.000000 0.000000 0.000000 0.000000 0.000000 0.000000 10.000000 
L_Leg01 0.000000 0.000000 0.000000 0.000000 0.000000 0.000000 10.000000 
L_Leg02 0.000000 0.000000 0.000000 0.000000 0.000000 0.000000 10.000000 
L_Leg03 0.000000 0.000000 0.000000 0.000000 0.000000 0.000000 10.000000 
L_Foot 0.000000 0.000000 0.000000 0.000000 0.000000 0.000000 10.000000 
L_Toe1_01 0.000000 0.000000 0.000000 0.000000 0.000000 0.000000 10.000000 
L_Toe2_01 0.000000 0.000000 0.000000 0.000000 0.000000 0.000000 10.000000 
L_Toe3_01 0.000000 0.000000 0.000000 0.000000 0.000000 0.000000 10.000000 
planeAlignerLeft 0.000000 0.000000 0.000000 0.000000 0.000000 0.000000 10.000000 
L_Toe1_02 0.000000 0.000000 0.000000 0.000000 0.000000 0.000000 10.000000 
L_Toe1_03 0.000000 0.000000 0.000000 0.000000 0.000000 0.000000 10.000000 
L_Toe2_02 0.000000 0.000000 0.000000 0.000000 0.000000 0.000000 10.000000 
L_Toe2_03 0.000000 0.000000 0.000000 0.000000 0.000000 0.000000 10.000000 
L_Toe3_02 0.000000 0.000000 0.000000 0.000000 0.000000 0.000000 10.000000 
L_Toe3_03 0.000000 0.000000 0.000000 0.000000 0.000000 0.000000 10.000000 
planeLockWeightLeft 0.000000 0.000000 0.000000 0.000000 0.000000 0.000000 10.000000 
R_Leg01 0.000000 0.000000 0.000000 0.000000 0.000000 0.000000 10.000000 
R_Leg02 0.000000 0.000000 0.000000 0.000000 0.000000 0.000000 10.000000 
R_Leg03 0.000000 0.000000 0.000000 0.000000 0.000000 0.000000 10.000000 
R_Foot 0.000000 0.000000 0.000000 0.000000 0.000000 0.000000 10.000000 
planeAlignerRight 0.000000 0.000000 0.000000 0.000000 0.000000 0.000000 10.000000 
R_Toe1_01 0.000000 0.000000 0.000000 0.000000 0.000000 0.000000 10.000000 
R_Toe2_01 0.000000 0.000000 0.000000 0.000000 0.000000 0.000000 10.000000 
R_Toe3_01 0.000000 0.000000 0.000000 0.000000 0.000000 0.000000 10.000000 
planeLockWeightRight 0.000000 0.000000 0.000000 0.000000 0.000000 0.000000 10.000000 
R_Toe1_02 0.000000 0.000000 0.000000 0.000000 0.000000 0.000000 10.000000 
R_Toe1_03 0.000000 0.000000 0.000000 0.000000 0.000000 0.000000 10.000000 
R_Toe2_02 0.000000 0.000000 0.000000 0.000000 0.000000 0.000000 10.000000 
R_Toe2_03 0.000000 0.000000 0.000000 0.000000 0.000000 0.000000 10.000000 
R_Toe3_02 0.000000 0.000000 0.000000 0.000000 0.000000 0.000000 10.000000 
R_Toe3_03 0.000000 0.000000 0.000000 0.000000 0.000000 0.000000 10.000000 
Rear_Leg02 0.000000 0.000000 0.000000 0.000000 0.000000 0.000000 10.000000 
Rear_Leg03 0.000000 0.000000 0.000000 0.000000 0.000000 0.000000 10.000000 
Rear_Leg04 0.000000 0.000000 0.000000 0.000000 0.000000 0.000000 10.000000 
Rear_Foot 0.000000 0.000000 0.000000 0.000000 0.000000 0.000000 10.000000 
planeAlignerCenter 0.000000 0.000000 0.000000 0.000000 0.000000 0.000000 10.000000 
Rear_Toe1_01 0.000000 0.000000 0.000000 0.000000 0.000000 0.000000 10.000000 
Rear_Toe2_01 0.000000 0.000000 0.000000 0.000000 0.000000 0.000000 10.000000 
Rear_Toe3_01 0.000000 0.000000 0.000000 0.000000 0.000000 0.000000 10.000000 
planeLockWeightCenter 0.000000 0.000000 0.000000 0.000000 0.000000 0.000000 10.000000 
Rear_Toe1_02 0.000000 0.000000 0.000000 0.000000 0.000000 0.000000 10.000000 
Rear_Toe1_03 0.000000 0.000000 0.000000 0.000000 0.000000 0.000000 10.000000 
Rear_Toe2_02 0.000000 0.000000 0.000000 0.000000 0.000000 0.000000 10.000000 
Rear_Toe2_03 0.000000 0.000000 0.000000 0.000000 0.000000 0.000000 10.000000 
Rear_Toe3_02 0.000000 0.000000 0.000000 0.000000 0.000000 0.000000 10.000000 
Rear_Toe3_03 0.000000 0.000000 0.000000 0.000000 0.000000 0.000000 10.000000 
Back_Bone 0.000000 0.000000 0.000000 0.000000 0.000000 0.000000 10.000000 
Head 0.000000 0.000000 0.000000 0.000000 0.000000 0.000000 10.000000 
Motor_Bone 0.000000 0.000000 0.000000 0.000000 0.000000 0.000000 10.000000 
Ping_Mechanism 0.000000 0.000000 0.000000 0.000000 0.000000 0.000000 10.000000 
BN_LookIK 0.000000 0.000000 0.000000 0.000000 0.000000 0.000000 10.000000 
bottomMouth 0.000000 0.000000 0.000000 0.000000 0.000000 0.000000 10.000000 
L_Mouth01 0.000000 0.000000 0.000000 0.000000 0.000000 0.000000 10.000000 
L_mouthFront 0.000000 0.000000 0.000000 0.000000 0.000000 0.000000 10.000000 
mouthGun 0.000000 0.000000 0.000000 0.000000 0.000000 0.000000 10.000000 
R_Mouth01 0.000000 0.000000 0.000000 0.000000 0.000000 0.000000 10.000000 
R_mouthFront 0.000000 0.000000 0.000000 0.000000 0.000000 0.000000 10.000000 
TopMouth 0.000000 0.000000 0.000000 0.000000 0.000000 0.000000 10.000000 
weapon_bone 0.000000 0.000000 0.000000 0.000000 0.000000 0.000000 10.000000 
#Beginning of Data. Separated by tabs
#Fr	Tx	Ty	Tz	Rx	Ry	Rz	SF
[Pinger_Root]
51 -0.000020 -2500.000000 0.000000 -0.000075 -0.000000 -0.000020 2500.000000
52 -0.000020 -2500.000000 0.000000 -0.000075 -0.000000 -0.000020 2500.000000
53 -0.000020 -2500.000000 0.000000 -0.000075 -0.000000 -0.000020 2500.000000
[Pelvis]
51 207.824890 1042.831787 4203.301270 -98.331497 -69.302643 98.876572 4335.716309
52 191.662476 1044.586060 4144.976074 -94.036331 -70.960396 94.474228 4278.869629
53 177.166336 1044.791138 4097.881348 -88.952919 -72.491173 89.284096 4232.683105
[L_Hip]
51 5.766392 125.831482 872.656799 166.684418 -74.620682 104.154259 881.701050
52 5.766392 125.831482 872.656799 165.632935 -73.504555 105.500870 881.701050
53 5.766392 125.831482 872.656799 164.733368 -72.382469 106.696480 881.701050
[R_Hip]
51 5.765438 125.836372 -872.654907 22.337265 76.177002 110.337784 881.699829
52 5.765438 125.836372 -872.654907 24.305256 75.167107 112.176552 881.699829
53 5.765438 125.836372 -872.654907 26.030767 74.142937 113.772484 881.699829
[Rear_Leg01]
51 -192.298416 -925.602966 -0.001907 147.741837 -26.848642 -148.504181 945.367432
52 -192.298416 -925.602966 -0.001907 150.544922 -17.176937 -142.223495 945.367432
53 -192.298416 -925.602966 -0.001907 153.862518 -7.039776 -135.257309 945.367432
[Spine1]
51 290.604584 5.007505 0.000477 -0.886854 3.524163 6.390541 290.647736
52 290.604584 5.007505 0.000477 -1.188701 1.939614 7.695130 290.647736
53 290.604584 5.007505 0.000477 -1.526498 0.361834 9.007771 290.647736
[L_Leg01]
51 761.932007 -0.002384 -0.069261 4.172178 -53.435951 4.796597 761.932068
52 761.932007 -0.002384 -0.069261 8.650946 -52.231434 -1.258550 761.932068
53 761.932007 -0.002384 -0.069261 14.494055 -50.559856 -9.444865 761.932068
[L_Leg02]
51 1441.140503 -0.000954 -0.000715 1.725715 -0.341758 -132.704315 1441.140503
52 1441.140503 -0.000954 -0.000715 2.026313 -0.334263 -132.638153 1441.140503
53 1441.140503 -0.000954 -0.000715 2.240471 -0.285311 -131.184448 1441.140503
[L_Leg03]
51 1686.963989 -0.000715 -0.000954 0.005194 -0.004404 108.802704 1686.963989
52 1686.963989 -0.000715 -0.000954 -0.004567 0.000865 111.451347 1686.963989
53 1686.963989 -0.000715 -0.000954 -0.014080 0.006583 114.101440 1686.963989
[L_Foot]
51 3041.570068 -30.715107 11.297464 -5.099284 6.526080 45.244537 3041.746094
52 3041.570068 -30.715107 11.297464 -4.571809 6.748721 45.047569 3041.746094
53 3041.570068 -30.715107 11.297464 -4.044858 6.973154 44.852554 3041.746094
[L_Toe1_01]
51 -188.216690 -224.732346 -21.137953 90.040108 -2.759522 -161.321716 293.899567
52 -188.216690 -224.732346 -21.137953 90.165543 -2.944713 -161.887039 293.899567
53 -188.216690 -224.732346 -21.137953 90.335579 -3.230170 -162.856430 293.899567
[L_Toe2_01]
51 200.746536 -219.926590 148.838394 -82.182541 -16.216402 -39.617275 332.896027
52 200.746536 -219.926590 148.838394 -82.526299 -16.684456 -40.021976 332.896027
53 200.746536 -219.926590 148.838394 -82.867432 -17.154797 -40.424713 332.896027
[L_Toe3_01]
51 188.832520 -219.859131 -191.078659 -106.203308 29.309607 -47.320518 347.140900
52 188.832520 -219.859131 -191.078659 -105.937958 28.711380 -47.851269 347.140900
53 188.832520 -219.859131 -191.078659 -105.616043 27.814514 -48.416924 347.140900
[planeAlignerLeft]
51 20.933834 -525.176514 -22.040815 170.534790 -87.170082 97.206848 526.055542
52 25.634249 -525.437439 -15.194273 170.369019 -86.719978 97.015610 526.281738
53 30.334770 -525.698303 -8.347680 170.200104 -86.269859 96.827301 526.638916
[L_Toe1_02]
51 413.761139 0.000477 0.000000 0.001396 -24.406414 0.001396 413.761139
52 413.761139 0.000477 0.000000 0.001393 -24.752211 0.001393 413.761139
53 413.761139 0.000477 0.000000 0.001391 -25.098021 0.001391 413.761139
[L_Toe1_03]
51 464.317322 0.000358 -0.000089 0.002658 37.602257 0.002658 464.317322
52 464.317322 0.000358 -0.000089 0.002757 39.604034 0.002757 464.317322
53 464.317322 0.000358 -0.000089 0.002896 42.148930 0.002896 464.317322
[L_Toe2_02]
51 342.235809 -0.000477 0.000238 0.001180 -78.021431 0.001180 342.235809
52 342.235809 -0.000477 0.000238 0.001180 -77.859131 0.001180 342.235809
53 342.235809 -0.000477 0.000238 0.001180 -77.696808 0.001180 342.235809
[L_Toe2_03]
51 420.210846 -0.000715 0.000000 -179.997269 75.340958 -179.993744 420.210846
52 420.210846 -0.000715 0.000000 -179.997009 76.097008 -179.993484 420.210846
53 420.210846 -0.000715 0.000000 -179.996475 77.499054 -179.992966 420.210846
[L_Toe3_02]
51 329.270111 0.000954 0.000000 0.004289 -83.525040 0.004289 329.270111
52 329.270111 0.000954 0.000000 0.004094 -83.437355 0.004094 329.270111
53 329.270111 0.000954 0.000000 0.003900 -83.349754 0.003900 329.270111
[L_Toe3_03]
51 439.137451 -0.001907 0.000954 179.991562 61.907402 179.998779 439.137451
52 439.137451 -0.001907 0.000954 179.991531 62.132175 179.998734 439.137451
53 439.137451 -0.001907 0.000954 179.991409 62.825623 179.998596 439.137451
[planeLockWeightLeft]
51 1000.000244 -0.000058 -0.000095 -0.011826 -0.004376 0.005620 1000.000244
52 1000.000244 -0.000066 -0.000095 -0.011826 -0.004376 0.005620 1000.000244
53 1000.000244 -0.000074 -0.000095 -0.011826 -0.004376 0.005620 1000.000244
[R_Leg01]
51 761.455627 -0.001907 -0.000358 136.937714 -34.910778 49.522362 761.455688
52 761.455627 -0.001907 -0.000358 134.597275 -28.815523 50.986973 761.455688
53 761.455627 -0.001907 -0.000358 132.800598 -22.250639 51.914063 761.455688
[R_Leg02]
51 1441.140625 0.000000 -0.000238 -1.583440 -0.493481 -132.919754 1441.140625
52 1441.140625 0.000000 -0.000238 -2.032427 -0.845923 -130.881760 1441.140625
53 1441.140625 0.000000 -0.000238 -2.415014 -1.262272 -127.662399 1441.140625
[R_Leg03]
51 1686.963989 0.000954 0.001431 0.102080 -0.060544 137.796875 1686.963989
52 1686.963989 0.000954 0.001431 0.121309 -0.075565 142.606400 1686.963989
53 1686.963989 0.000954 0.001431 0.135509 -0.085187 146.794937 1686.963989
[R_Foot]
51 3041.560059 -30.531288 -11.204481 6.925865 -6.928848 54.536919 3041.734131
52 3041.560059 -30.531288 -11.204481 6.177121 -7.367170 53.175076 3041.734131
53 3041.560059 -30.531288 -11.204481 5.408744 -8.003160 51.313816 3041.734131
[planeAlignerRight]
51 -34.568001 -760.583740 -95.164886 -36.765720 -84.995903 -56.423603 767.293274
52 -43.581337 -746.166687 -115.195084 -36.760693 -83.690895 -57.224567 756.263245
53 -52.594700 -731.749573 -135.225372 -36.894302 -82.386139 -57.888046 745.995728
[R_Toe1_01]
51 -188.383347 -224.864899 21.052242 87.130341 -2.421681 -153.999481 294.101532
52 -188.383347 -224.864899 21.052242 85.916626 -2.199724 -155.939590 294.101532
53 -188.383347 -224.864899 21.052242 84.695229 -2.018856 -157.885345 294.101532
[R_Toe2_01]
51 200.637817 -220.002121 -148.787384 -98.984894 7.010134 -55.932426 332.857574
52 200.637817 -220.002121 -148.787384 -98.772720 8.952502 -56.338696 332.857574
53 200.637817 -220.002121 -148.787384 -98.507469 11.384674 -56.727970 332.857574
[R_Toe3_01]
51 188.606735 -220.092957 191.126343 -62.214836 -25.559019 -71.624489 347.192566
52 188.606735 -220.092957 191.126343 -63.035282 -23.873739 -71.888329 347.192566
53 188.606735 -220.092957 191.126343 -63.854134 -22.191559 -72.175003 347.192566
[planeLockWeightRight]
51 999.999817 0.000139 -0.000387 -0.011823 -0.004379 -0.000027 999.999817
52 999.999817 0.000144 -0.000388 -0.011823 -0.004379 -0.000027 999.999817
53 999.999817 0.000150 -0.000390 -0.011823 -0.004379 -0.000027 999.999817
[R_Toe1_02]
51 413.762085 0.000477 -0.000119 0.001386 -25.732090 0.001386 413.762085
52 413.762085 0.000477 -0.000119 0.001387 -25.643551 0.001387 413.762085
53 413.762085 0.000477 -0.000119 0.001387 -25.555010 0.001387 413.762085
[R_Toe1_03]
51 464.317810 0.000000 0.001088 0.004310 58.381344 0.004310 464.317810
52 464.317810 0.000000 0.001088 0.004529 59.942719 0.004529 464.317810
53 464.317810 0.000000 0.001088 0.004770 61.503811 0.004770 464.317810
[R_Toe2_02]
51 342.234741 -0.000954 0.000238 0.001209 -62.081242 0.001209 342.234741
52 342.234741 -0.000954 0.000238 0.001208 -62.840897 0.001208 342.234741
53 342.234741 -0.000954 0.000238 0.001206 -63.600613 0.001206 342.234741
[R_Toe2_03]
51 420.210846 0.000715 -0.000268 -0.004387 64.381165 -0.000800 420.210846
52 420.210846 0.000715 -0.000268 -0.004518 65.664940 -0.000939 420.210846
53 420.210846 0.000715 -0.000268 -0.004663 66.948753 -0.001093 420.210846
[R_Toe3_02]
51 329.270355 -0.000477 -0.000954 -0.002385 -63.862572 -0.002385 329.270355
52 329.270355 -0.000477 -0.000954 -0.001783 -65.033287 -0.001783 329.270355
53 329.270355 -0.000477 -0.000954 -0.001183 -66.204491 -0.001183 329.270355
[R_Toe3_03]
51 439.137939 0.000238 0.001431 0.004992 62.801693 0.004992 439.137939
52 439.137939 0.000238 0.001431 0.005309 64.456017 0.005309 439.137939
53 439.137939 0.000238 0.001431 0.005796 66.617332 0.005796 439.137939
[Rear_Leg02]
51 1162.777710 -0.029802 0.005960 9.682535 48.884228 -108.797729 1162.777710
52 1162.777710 -0.029802 0.005960 4.624534 35.414459 -111.503731 1162.777710
53 1162.777710 -0.029802 0.005960 2.941793 21.669704 -106.958687 1162.777710
[Rear_Leg03]
51 607.192505 -0.013351 -0.073195 0.010235 -0.005604 73.755989 607.192505
52 607.192505 -0.013351 -0.073195 0.010199 -0.005669 74.491722 607.192505
53 607.192505 -0.013351 -0.073195 0.010206 -0.005655 74.336510 607.192505
[Rear_Leg04]
51 995.874512 -0.020504 -0.011921 -0.045244 -0.017927 80.186966 995.874573
52 995.874512 -0.020504 -0.011921 -0.045504 -0.017255 81.885002 995.874573
53 995.874512 -0.020504 -0.011921 -0.045437 -0.017431 81.440582 995.874573
[Rear_Foot]
51 3096.176270 -0.067472 -0.041425 56.936749 62.286655 -104.795036 3096.176270
52 3096.176270 -0.067472 -0.041425 65.312408 73.614250 -91.614655 3096.176270
53 3096.176270 -0.067472 -0.041425 106.551117 80.977310 -46.997025 3096.176270
[planeAlignerCenter]
51 -87.495529 -58.153675 -890.674011 3.194658 -0.001613 179.998306 896.848633
52 -71.854950 -1.946017 -929.407715 3.579487 -0.001608 179.998291 932.183228
53 -54.085491 51.739033 -965.006653 3.964376 -0.001602 179.998291 967.904968
[Rear_Toe1_01]
51 0.653352 83.966492 -371.173737 5.051199 34.137848 96.863503 380.553192
52 0.653352 83.966492 -371.173737 4.101578 36.704624 95.595619 380.553192
53 0.653352 83.966492 -371.173737 3.045197 39.252907 94.227997 380.553192
[Rear_Toe2_01]
51 178.200760 -294.826019 -362.060547 -5.644156 57.798443 -77.826317 499.765686
52 178.200760 -294.826019 -362.060547 -3.283539 61.225147 -73.786201 499.765686
53 178.200760 -294.826019 -362.060547 1.598309 64.493034 -67.289780 499.765686
[Rear_Toe3_01]
51 -153.359680 -308.780914 -362.060852 -5.782684 56.995979 -120.169067 499.952881
52 -153.359680 -308.780914 -362.060852 -7.807149 60.030342 -122.269897 499.952881
53 -153.359680 -308.780914 -362.060852 -10.281281 63.019512 -124.819275 499.952881
[planeLockWeightCenter]
51 -0.000029 0.000229 0.000000 -0.011814 -0.004373 -0.000015 0.000231
52 -0.000019 0.000305 0.000000 -0.011814 -0.004373 -0.000015 0.000306
53 -0.000010 0.000381 0.000000 -0.011814 -0.004373 -0.000015 0.000382
[Rear_Toe1_02]
51 379.707825 0.194073 0.000477 -0.006721 -29.963247 -0.006721 379.707855
52 379.707825 0.194073 0.000477 -0.004671 -31.326998 -0.004671 379.707855
53 379.707825 0.194073 0.000477 -0.002647 -32.690746 -0.002647 379.707855
[Rear_Toe1_03]
51 500.129700 0.165701 0.000119 -179.994873 70.311508 -179.998413 500.129761
52 500.129700 0.165701 0.000119 -179.991943 79.522476 -179.995453 500.129761
53 500.129700 0.165701 0.000119 -179.911072 89.243851 -179.914566 500.129761
[Rear_Toe2_02]
51 340.494507 0.000238 -0.000954 0.000000 -89.454636 -0.004646 340.494507
52 340.494507 0.000238 -0.000954 0.000000 -89.745895 -0.002347 340.494507
53 340.494507 0.000238 -0.000954 179.998825 -89.343590 179.998825 340.494507
[Rear_Toe2_03]
51 433.103577 0.000000 0.000238 -179.995178 68.315659 -179.998718 433.103546
52 433.103577 0.000000 0.000238 -179.995499 65.535088 -179.999084 433.103546
53 433.103577 0.000000 0.000238 -179.995651 64.082291 -179.999222 433.103546
[Rear_Toe3_02]
51 340.494141 -0.000358 -0.000477 0.001174 -86.343605 0.001174 340.494171
52 340.494141 -0.000358 -0.000477 0.001174 -87.830933 0.001174 340.494171
53 340.494141 -0.000358 -0.000477 0.001174 -88.844284 0.001174 340.494171
[Rear_Toe3_03]
51 433.103577 0.001431 -0.000238 -179.996414 77.663239 -179.992889 433.103546
52 433.103577 0.001431 -0.000238 -179.997772 73.470184 -179.994247 433.103546
53 433.103577 0.001431 -0.000238 -179.998413 70.366135 -179.994858 433.103546
[Back_Bone]
51 1312.175781 -701.934692 0.000954 2.373871 -0.574590 -88.605881 1488.125488
52 1312.175781 -701.934692 0.000954 2.419747 -1.292062 -88.893173 1488.125488
53 1312.175781 -701.934692 0.000954 2.469238 -2.009263 -89.181145 1488.125488
[Head]
51 1406.159424 809.709290 0.001431 1.397524 0.594501 6.319783 1622.625488
52 1406.159424 809.709290 0.001431 1.341613 0.510845 6.378582 1622.625488
53 1406.159424 809.709290 0.001431 1.285615 0.427245 6.437464 1622.625488
[Motor_Bone]
51 1158.364380 -417.834747 0.000477 -2.203643 -0.253251 -106.241302 1231.419434
52 1158.364380 -417.834747 0.000477 -2.687923 0.131920 -105.851540 1231.419434
53 1158.364380 -417.834747 0.000477 -5.513591 1.191221 -104.796608 1231.419434
[Ping_Mechanism]
51 1312.607300 -463.476257 -17.053936 0.000103 -0.000053 82.120995 1392.134766
52 1306.635742 -462.080078 -10.850209 0.000103 -0.000053 82.120995 1385.977173
53 1299.716553 -460.083649 -2.689472 0.000103 -0.000053 82.120995 1378.748535
[BN_LookIK]
51 193.241119 1380.371704 -0.002861 0.000000 89.965736 -31.038179 1393.832153
52 193.241119 1380.371704 -0.002861 0.000000 89.965736 -31.038179 1393.832153
53 193.241119 1380.371704 -0.002861 0.000000 89.965736 -31.038179 1393.832153
[bottomMouth]
51 -435.092926 615.759399 -0.000954 -0.000022 0.000016 73.527184 753.966492
52 -435.092926 615.759399 -0.000954 -0.000022 0.000016 73.527184 753.966492
53 -435.092926 615.759399 -0.000954 -0.000022 0.000016 73.527184 753.966492
[L_Mouth01]
51 554.440979 7.658243 838.222046 150.204178 23.759130 109.605339 1005.027161
52 554.440979 7.658243 838.222046 150.204178 23.759130 109.605339 1005.027161
53 554.440979 7.658243 838.222046 150.204178 23.759130 109.605339 1005.027161
[L_mouthFront]
51 551.629089 934.514771 339.150421 0.000081 2.804060 79.119301 1136.941284
52 551.629089 934.514771 339.150421 0.000081 2.804060 79.119301 1136.941284
53 551.629089 934.514771 339.150421 0.000081 2.804060 79.119301 1136.941284
[mouthGun]
51 55.332661 1627.420898 0.000000 0.000023 0.000009 -11.038128 1628.361328
52 55.332661 1627.420898 0.000000 0.000023 0.000009 -11.038128 1628.361328
53 55.332661 1627.420898 0.000000 0.000023 0.000009 -11.038128 1628.361328
[R_Mouth01]
51 554.442383 7.659197 -838.223938 29.795891 -23.759109 109.605331 1005.029541
52 554.442383 7.659197 -838.223938 29.795891 -23.759109 109.605331 1005.029541
53 554.442383 7.659197 -838.223938 29.795891 -23.759109 109.605331 1005.029541
[R_mouthFront]
51 551.629089 934.514282 -339.151367 0.000029 -2.803930 79.119133 1136.941162
52 551.629089 934.514282 -339.151367 0.000029 -2.803930 79.119133 1136.941162
53 551.629089 934.514282 -339.151367 0.000029 -2.803930 79.119133 1136.941162
[TopMouth]
51 461.269867 -56.106091 -0.008583 -0.000059 -0.000268 92.025169 464.669525
52 461.269867 -56.106091 -0.008583 -0.000059 -0.000268 92.025169 464.669525
53 461.269867 -56.106091 -0.008583 -0.000059 -0.000268 92.025169 464.669525
[weapon_bone]
51 -987.239868 1448.372803 0.001431 0.000000 89.965736 -31.038221 1752.833740
52 -987.239868 1448.372803 0.001431 0.000000 89.965736 -31.038221 1752.833740
53 -987.239868 1448.372803 0.001431 0.000000 89.965736 -31.038221 1752.833740
